<svg width="100" height="100" viewBox="0 0 100 100" fill="none" xmlns="http://www.w3.org/2000/svg">
<rect width="100" height="100" rx="8" fill="#005CFF"/>
<path d="M17 29H26.4307V70.1283H17V29Z" fill="white"/>
<path d="M26.0801 29H38.403V36.3097H26.0801V29ZM26.0801 62.8208H38.403V70.1304H26.0801V62.8208ZM26.0801 45.489H38.403V51.8281H26.0801V45.489Z" fill="white"/>
<path d="M38.4026 70.1304C38.4026 70.1304 51.4686 70.542 51.4686 57.9895C51.4686 57.9895 52.0384 47.7768 43.7668 47.7768C43.7668 47.7768 50.0431 47.311 50.0431 39.9515C50.0431 32.592 44.9085 29 38.4048 29C31.901 29 32.2433 32.6548 32.2433 32.6548L36.8644 36.3097H38.4048C38.4048 36.3097 41.3143 36.3097 41.3143 40.5884C41.3143 44.8672 39.6028 45.4868 37.6638 45.4868C35.7249 45.4868 34.9817 48.6564 34.9817 48.6564L38.4048 51.8259C38.4048 51.8259 42.7399 51.7696 42.7399 57.4739C42.7399 63.1782 38.1751 62.8164 37.0355 62.8164C35.896 62.8164 36.2361 65.7477 36.2361 65.7477L38.4026 70.1304ZM68.8935 39.464C53.0761 39.464 53.0913 55.2663 53.0913 55.2663C53.0913 55.2663 52.0059 70.9883 68.8935 70.9883C68.8935 70.9883 82.9669 71.7921 82.9669 60.052H75.7287C75.7287 60.052 75.9692 64.4738 69.134 64.4738C69.134 64.4738 61.8958 64.9569 61.8958 57.3179H83.2074C83.2074 57.3179 85.5406 39.464 68.8935 39.464ZM61.8156 51.8281C61.8156 51.8281 62.6996 45.489 69.0538 45.489C75.4081 45.489 75.3258 51.8281 75.3258 51.8281H61.8156ZM60.0456 31.4221H77.0156V36.4873H60.0456V31.4221Z" fill="white"/>
</svg>
