<svg width="100" height="100" viewBox="0 0 100 100" fill="none" xmlns="http://www.w3.org/2000/svg">
<g clip-path="url(#clip0_3_3)">
<rect width="100" height="100" rx="8" fill="#323232"/>
<g clip-path="url(#clip1_3_3)">
<path fill-rule="evenodd" clip-rule="evenodd" d="M77.2695 79.4497L83.1689 13.3667L83.2461 12.5H82.3769H17.623H16.7538L16.831 13.3667L22.724 79.4604L22.7731 80.0117L23.304 80.1587L49.7485 87.5H50.1728L76.6894 80.1479L77.2202 80.001L77.2695 79.4497Z" fill="#1572B6"/>
<path fill-rule="evenodd" clip-rule="evenodd" d="M78.1216 17.1874H50V82.6836L72.8398 76.3511L78.1216 17.1874Z" fill="#35A8DB"/>
<path fill-rule="evenodd" clip-rule="evenodd" d="M49.9687 34.7832L30.1341 43.0438L30.792 51.2222L49.9687 43.0229L70.3676 34.3015L71.2133 25.9353L49.9687 34.7832Z" fill="#E9E9E8"/>
<path fill-rule="evenodd" clip-rule="evenodd" d="M49.9687 25.9359H50.1157H50.2832H50.4502H50.6177H50.7851H50.9526H51.1201H51.2876H51.4551H51.6225H51.79H51.9575H52.125H52.2925H52.4599H52.6274H52.7944H52.9619H53.1294H53.2969H53.4643H53.6318H53.7993H53.9668H54.1343H54.3017H54.4692H54.6362H54.8037H54.9712H55.1386H55.3061H55.4736H55.6411H55.8086H55.9761H56.1435H56.311H56.4785H56.646H56.8135H56.9809H57.1479H57.3154H57.4829H57.6504H57.8178H57.9853H58.1528H58.3203H58.4878H58.6552H58.8227H58.9902H59.1577H59.3247H59.4922H59.6596H59.8271H59.9946H60.1621H60.3296H60.497H60.6645H60.832H60.9995H61.167H61.334H61.5014H61.6689H61.8364H62.0039H62.1714H62.3388H62.5063H62.6738H62.8413H63.0088H63.1762H63.3437H63.5112H63.6782H63.8457H64.0132H64.1806H64.3481H64.5156H64.6831H64.8506H65.018H65.1855H65.353H65.5205H65.6875H65.855H66.0224H66.1899H66.3574H66.5249H66.6924H66.8598H67.0273H67.1948H67.3623H67.5298H67.6972H67.8647H68.0317H68.1992H68.3667H68.5342H68.7016H68.8691H69.0366H69.2041H69.3716H69.539H69.7065H69.874H70.0415H70.209H70.376H70.5434H70.7109H70.8784H71.0459H71.2134L71.0459 27.5918L70.8784 29.2476L70.7109 30.9035L70.5434 32.5598L70.376 34.2157L70.3677 34.3018H70.209H70.0415H69.874H69.7065H69.539H69.3716H69.2041H69.0366H68.8691H68.7016H68.5342H68.3667H68.1992H68.0317H67.8647H67.6972H67.5298H67.3623H67.1948H67.0273H66.8598H66.6924H66.5249H66.3574H66.1899H66.0224H65.855H65.6875H65.5205H65.353H65.1855H65.018H64.8506H64.6831H64.5156H64.3481H64.1806H64.0132H63.8457H63.6782H63.5112H63.3437H63.1762H63.0088H62.8413H62.6738H62.5063H62.3388H62.1714H62.0039H61.8364H61.6689H61.5014H61.334H61.167H60.9995H60.832H60.6645H60.497H60.3296H60.1621H59.9946H59.8271H59.6596H59.4922H59.3247H59.1577H58.9902H58.8227H58.6552H58.4878H58.3203H58.1528H57.9853H57.8178H57.6504H57.4829H57.3154H57.1479H56.9809H56.8135H56.646H56.4785H56.311H56.1435H55.9761H55.8086H55.6411H55.4736H55.3061H55.1386H54.9712H54.8037H54.6362H54.4692H54.3017H54.1343H53.9668H53.7993H53.6318H53.4643H53.2969H53.1294H52.9619H52.7944H52.6274H52.4599H52.2925H52.125H51.9575H51.79H51.6225H51.4551H51.2876H51.125H51.1201H50.9526H50.7851H50.6177H50.4502H50.2832H50.1157H49.9931H49.9687H49.9482H49.7807H49.6133H49.4458H49.2783H49.1108H48.9433H48.776H48.6086H48.4411H48.2737H48.1062H47.9388H47.7714H47.6039H47.4365H47.269H47.1016H46.9341H46.7667H46.5993H46.4318H46.2644H46.0969H45.9295H45.762H45.5946H45.4272H45.2597H45.0923H44.9248H44.7574H44.5899H44.4225H44.2551H44.0876H43.9202H43.7527H43.5853H43.4178H43.2504H43.083H42.9156H42.7481H42.5806H42.4132H42.2458H42.0783H41.9109H41.7434H41.576H41.4086H41.2411H41.0737H40.9062H40.7387H40.5713H40.4039H40.2365H40.069H39.9015H39.7341H39.5666H39.3992H39.2318H39.0643H38.8968H38.7294H38.5619H38.3946H38.2271H38.0596H37.8922H37.7247H37.5573H37.3899H37.2224H37.055H36.8876H36.7201H36.5527H36.3852H36.2178H36.0503H35.8829H35.7155H35.548H35.3806H35.2131H35.0457H34.8782H34.7108H34.5434H34.3759H34.2085H34.041H33.8736H33.7061H33.5387H33.3713H33.2038H33.0364H32.8689H32.7015H32.5341H32.3666H32.1991H32.0317H31.8643H31.6968H31.5294H31.3619H31.1945H31.0271H30.8596H30.6922H30.5247H30.3573H30.1899H30.0224H29.855H29.6875H29.52H29.3819L29.3527 34.0651L29.1852 32.71L29.0177 31.3553L28.8503 30.0001L28.6828 28.6454L28.5155 27.2907L28.348 25.9359H28.5155H28.6828H28.8503H29.0177H29.1852H29.3527H29.52H29.6875H29.855H30.0224H30.1899H30.3573H30.5247H30.6922H30.8596H31.0271H31.1945H31.3619H31.5294H31.6968H31.8643H32.0317H32.1991H32.3666H32.5341H32.7015H32.8689H33.0364H33.2038H33.3713H33.5387H33.7061H33.8736H34.041H34.2085H34.3759H34.5434H34.7108H34.8782H35.0457H35.2131H35.3806H35.548H35.7155H35.8829H36.0503H36.2178H36.3852H36.5527H36.7201H36.8876H37.055H37.2224H37.3899H37.5573H37.7247H37.8922H38.0596H38.2271H38.3946H38.5619H38.7294H38.8968H39.0643H39.2318H39.3992H39.5666H39.7341H39.9015H40.069H40.2365H40.4039H40.5713H40.7387H40.9062H41.0737H41.2411H41.4086H41.576H41.7434H41.9109H42.0783H42.2458H42.4132H42.5806H42.7481H42.9156H43.083H43.2504H43.4178H43.5853H43.7527H43.9202H44.0876H44.2551H44.4225H44.5899H44.7574H44.9248H45.0923H45.2597H45.4272H45.5946H45.762H45.9295H46.0969H46.2644H46.4318H46.5993H46.7667H46.9341H47.1016H47.269H47.4365H47.6039H47.7714H47.9388H48.1062H48.2737H48.4411H48.6086H48.776H48.9433H49.1108H49.2783H49.4458H49.6133H49.7807H49.9482H49.9687Z" fill="#E9E9E8"/>
<path fill-rule="evenodd" clip-rule="evenodd" d="M30.1647 43.045H69.647L68.9277 51.3164L30.8226 51.2222L30.1647 43.045Z" fill="#E9E9E8"/>
<path fill-rule="evenodd" clip-rule="evenodd" d="M31.3984 55.8296L40.0352 55.833L40.5987 62.5962L49.9688 64.9199L59.5884 62.2202L60.2393 51.1602L68.9531 51.0234L67.3906 68.9883L50 74.0649L32.4841 68.8945L31.3984 55.8296Z" fill="#E9E9E8"/>
<path fill-rule="evenodd" clip-rule="evenodd" d="M50 43.0094L70.3677 34.3015L71.2134 25.9353L50 34.7701V43.0094Z" fill="#FFFFFE"/>
<path fill-rule="evenodd" clip-rule="evenodd" d="M50 25.9359H50.1157H50.2832H50.4502H50.6177H50.7852H50.9526H51.1201H51.2876H51.4551H51.6226H51.79H51.9575H52.125H52.2925H52.46H52.6274H52.7944H52.9619H53.1294H53.2969H53.4644H53.6318H53.7993H53.9668H54.1343H54.3018H54.4692H54.6362H54.8037H54.9712H55.1387H55.3062H55.4736H55.6411H55.8086H55.9761H56.1436H56.311H56.4785H56.646H56.8135H56.981H57.1479H57.3154H57.4829H57.6504H57.8179H57.9854H58.1528H58.3203H58.4878H58.6553H58.8228H58.9902H59.1577H59.3247H59.4922H59.6597H59.8271H59.9946H60.1621H60.3296H60.4971H60.6646H60.832H60.9995H61.167H61.334H61.5015H61.6689H61.8364H62.0039H62.1714H62.3389H62.5063H62.6738H62.8413H63.0088H63.1763H63.3438H63.5112H63.6782H63.8457H64.0132H64.1807H64.3481H64.5156H64.6831H64.8506H65.0181H65.1855H65.353H65.5205H65.6875H65.855H66.0225H66.1899H66.3574H66.5249H66.6924H66.8599H67.0273H67.1948H67.3623H67.5298H67.6973H67.8647H68.0317H68.1992H68.3667H68.5342H68.7017H68.8691H69.0366H69.2041H69.3716H69.5391H69.7065H69.874H70.0415H70.209H70.376H70.5435H70.7109H70.8784H71.0459H71.2134L71.0459 27.5918L70.8784 29.2476L70.7109 30.9035L70.5435 32.5598L70.376 34.2157L70.3677 34.3018H70.209H70.0415H69.874H69.7065H69.5391H69.3716H69.2041H69.0366H68.8691H68.7017H68.5342H68.3667H68.1992H68.0317H67.8647H67.6973H67.5298H67.3623H67.1948H67.0273H66.8599H66.6924H66.5249H66.3574H66.1899H66.0225H65.855H65.6875H65.5205H65.353H65.1855H65.0181H64.8506H64.6831H64.5156H64.3481H64.1807H64.0132H63.8457H63.6782H63.5112H63.3438H63.1763H63.0088H62.8413H62.6738H62.5063H62.3389H62.1714H62.0039H61.8364H61.6689H61.5015H61.334H61.167H60.9995H60.832H60.6646H60.4971H60.3296H60.1621H59.9946H59.8271H59.6597H59.4922H59.3247H59.1577H58.9902H58.8228H58.6553H58.4878H58.3203H58.1528H57.9854H57.8179H57.6504H57.4829H57.3154H57.1479H56.981H56.8135H56.646H56.4785H56.311H56.1436H55.9761H55.8086H55.6411H55.4736H55.3062H55.1387H54.9712H54.8037H54.6362H54.4692H54.3018H54.1343H53.9668H53.7993H53.6318H53.4644H53.2969H53.1294H52.9619H52.7944H52.6274H52.46H52.2925H52.125H51.9575H51.79H51.6226H51.4551H51.2876H51.125H51.1201H50.9526H50.7852H50.6177H50.4502H50.2832H50.1157H50V25.9359Z" fill="#FFFFFE"/>
<path fill-rule="evenodd" clip-rule="evenodd" d="M50 43.045H69.647L68.9277 51.3164L50 51.2695V43.045Z" fill="#FFFFFE"/>
<path fill-rule="evenodd" clip-rule="evenodd" d="M50 64.9111L59.5884 62.2202L60.2393 51.1602L68.9531 51.0234L67.3906 68.9883L50 74.0649V74.0645V64.9111Z" fill="#FFFFFE"/>
</g>
</g>
<defs>
<clipPath id="clip0_3_3">
<rect width="100" height="100" rx="8" fill="white"/>
</clipPath>
<clipPath id="clip1_3_3">
<rect width="100" height="100" fill="white"/>
</clipPath>
</defs>
</svg>
