<svg width="100" height="100" viewBox="0 0 100 100" fill="none" xmlns="http://www.w3.org/2000/svg">
<rect width="100" height="100" rx="8" fill="#323232"/>
<path d="M86.7696 43.3212C86.5609 43.1432 84.6825 41.684 80.6476 41.684C79.604 41.684 78.5256 41.7908 77.4822 41.9687C76.7169 36.5231 72.2992 33.8894 72.1253 33.7471L71.047 33.1063L70.3513 34.1385C69.4817 35.5266 68.8208 37.0927 68.4381 38.6943C67.7077 41.7908 68.1598 44.7094 69.6904 47.2007C67.8468 48.2685 64.8553 48.5177 64.2293 48.5532H14.8351C13.5481 48.5532 12.5045 49.621 12.5045 50.9379C12.4351 55.3513 13.1655 59.7646 14.6613 63.9288C16.3656 68.4846 18.905 71.8659 22.1747 73.9302C25.8619 76.2436 31.8796 77.5605 38.6625 77.5605C41.7236 77.5605 44.7845 77.2758 47.8109 76.7063C52.0197 75.9232 56.0547 74.4284 59.7767 72.2573C62.827 70.4481 65.5755 68.1405 67.9163 65.4238C71.847 60.9036 74.1775 55.8496 75.8819 51.365H76.5776C80.8561 51.365 83.4997 49.621 84.9606 48.1261C85.9346 47.2007 86.665 46.0618 87.1868 44.7806L87.5 43.8552L86.7696 43.3212Z" fill="#0091E2"/>
<path d="M19.4268 47.0938H26.0358C26.3489 47.0938 26.6272 46.8448 26.6272 46.4889V40.4383C26.6272 40.1179 26.3837 39.8333 26.0358 39.8333H19.4268C19.1137 39.8333 18.8354 40.0823 18.8354 40.4383V46.4889C18.8702 46.8448 19.1137 47.094 19.4268 47.094V47.0938ZM28.5403 47.0938H35.1494C35.4624 47.0938 35.7407 46.8448 35.7407 46.4889V40.4383C35.7407 40.1179 35.4972 39.8333 35.1494 39.8333H28.5401C28.2271 39.8333 27.9488 40.0823 27.9488 40.4383V46.4889C27.9837 46.8448 28.2272 47.094 28.5401 47.094M37.8276 47.094H44.4367C44.7497 47.094 45.028 46.8448 45.028 46.4889V40.4383C45.028 40.1179 44.7845 39.8333 44.4367 39.8333H37.8276C37.5146 39.8333 37.2363 40.0823 37.2363 40.4383V46.4889C37.2363 46.8448 37.4798 47.094 37.8276 47.094ZM46.9759 47.094H53.5851C53.8981 47.094 54.1764 46.8448 54.1764 46.4889V40.4383C54.1764 40.1179 53.9328 39.8333 53.5851 39.8333H46.9759C46.6629 39.8333 46.3846 40.0823 46.3846 40.4383V46.4889C46.3846 46.8448 46.6629 47.094 46.9759 47.094ZM28.5403 38.4452H35.1493C35.4623 38.4452 35.7406 38.1605 35.7406 37.8402V31.7895C35.7406 31.4692 35.497 31.1844 35.1493 31.1844H28.5401C28.2271 31.1844 27.9488 31.4335 27.9488 31.7895V37.8402C27.9837 38.1604 28.2274 38.4452 28.5403 38.4452ZM37.8276 38.4452H44.4367C44.7497 38.4452 45.028 38.1605 45.028 37.8402V31.7895C45.028 31.4692 44.7845 31.1844 44.4367 31.1844H37.8276C37.5146 31.1844 37.2363 31.4335 37.2363 31.7895V37.8402C37.2363 38.1604 37.4798 38.4452 37.8276 38.4452ZM46.9759 38.4452H53.5851C53.8981 38.4452 54.1764 38.1605 54.1764 37.8402V31.7895C54.1764 31.4692 53.898 31.1844 53.5851 31.1844H46.9759C46.6629 31.1844 46.3846 31.4335 46.3846 31.7895V37.8402C46.3846 38.1604 46.6629 38.4452 46.9759 38.4452ZM46.9759 29.7608H53.5851C53.8981 29.7608 54.1764 29.5116 54.1764 29.1558V23.1052C54.1764 22.7848 53.898 22.5 53.5851 22.5H46.9759C46.6629 22.5 46.3846 22.7492 46.3846 23.1052V29.1558C46.3846 29.476 46.6629 29.7608 46.9759 29.7608ZM56.1938 47.094H62.8029C63.1159 47.094 63.3942 46.8448 63.3942 46.4889V40.4383C63.3942 40.1179 63.1508 39.8333 62.8029 39.8333H56.1939C55.8808 39.8333 55.6025 40.0823 55.6025 40.4383V46.4889C55.6373 46.8448 55.8809 47.094 56.1939 47.094" fill="#0091E2"/>
</svg>
