<svg width="100" height="100" viewBox="0 0 100 100" fill="none" xmlns="http://www.w3.org/2000/svg">
<rect width="100" height="100" rx="8" fill="#323232"/>
<g clip-path="url(#clip0_9_109)">
<path d="M49.9999 87.966C70.9682 87.966 87.9662 70.968 87.9662 50C87.9662 29.0319 70.9682 12.0339 49.9999 12.0339C29.0319 12.0339 12.0339 29.0319 12.0339 50C12.0339 70.968 29.0319 87.966 49.9999 87.966Z" fill="white"/>
<path d="M50 10C27.9086 10 10 27.9086 10 50C10 72.0915 27.9086 90 50 90C72.0915 90 90 72.0915 90 50C90 27.9086 72.0915 10 50 10ZM50 14.0678C69.8448 14.0678 85.9323 30.1552 85.9323 50C85.9323 69.8448 69.8448 85.9323 50 85.9323C30.1552 85.9323 14.0678 69.8448 14.0678 50C14.0678 30.1552 30.1552 14.0678 50 14.0678Z" fill="#4000BF"/>
<path d="M50.4518 21.5254C66.1781 21.5254 78.9266 34.2739 78.9266 50C78.9266 65.726 66.1781 78.4745 50.4518 78.4745C34.7258 78.4745 21.9773 65.726 21.9773 50C21.9773 46.1567 22.7387 42.4912 24.119 39.146C26.1344 41.8905 29.3845 43.6723 33.0507 43.6723C39.1666 43.6723 44.1241 38.7145 44.1241 32.5989C44.1241 28.9326 42.3426 25.6825 39.5978 23.6672C42.9431 22.2869 46.6086 21.5254 50.4518 21.5254Z" fill="url(#paint0_linear_9_109)"/>
</g>
<defs>
<linearGradient id="paint0_linear_9_109" x1="2869.43" y1="5716.43" x2="2869.43" y2="21.5254" gradientUnits="userSpaceOnUse">
<stop stop-color="#7400E1"/>
<stop offset="1" stop-color="#4000BF"/>
</linearGradient>
<clipPath id="clip0_9_109">
<rect width="80" height="80" fill="white" transform="translate(10 10)"/>
</clipPath>
</defs>
</svg>
